<svg xmlns="http://www.w3.org/2000/svg" viewBox="0 0 512 512" style="height: 512px; width: 512px;"><g class="" transform="translate(0,0)" style=""><path d="M95 25v462h322V25H95zm193 18h80v18h-80V43zM114 83h284v84H114V83zm22 46v18h88v-18h-88zm-22 54h58v58h-58v-58zm76 0h58v58h-58v-58zm74 0h58v58h-58v-58zm76 0h58v58h-58v-58zm-208 18v22h22v-22h-22zm76 0v22h22v-22h-22zm74 0v22h22v-22h-22zm76 0v22h22v-22h-22zm-244 56h58v58h-58v-58zm76 0h58v58h-58v-58zm74 0h58v58h-58v-58zm76 0h58v58h-58v-58zm-208 18v22h22v-22h-22zm76 0v22h22v-22h-22zm74 0v22h22v-22h-22zm76 0v22h22v-22h-22zm-244 56h58v58h-58v-58zm76 0h58v58h-58v-58zm74 0h58v58h-58v-58zm76 0h58v132h-58V331zm-208 18v22h22v-22h-22zm76 0v22h22v-22h-22zm74 0v22h22v-22h-22zm76 0v96h22v-96h-22zm-244 56h58v58h-58v-58zm76 0h58v58h-58v-58zm74 0h58v58h-58v-58zm-132 18v22h22v-22h-22zm76 0v22h22v-22h-22zm74 0v22h22v-22h-22z" fill="#fff" fill-opacity="1" stroke="#f5a623" stroke-opacity="1" stroke-width="8"></path></g><g font-family="Arial, Helvetica, sans-serif" font-size="120" font-style="normal" font-weight="bold" text-anchor="middle" text-decoration=" rgba(255, 255, 255, 1)" class="" transform="translate(256,300)" style=""><g><text stroke="rgba(0, 0, 0, 1)" stroke-width="30"><tspan x="0" y="0">Calc</tspan></text><text fill="rgba(255, 255, 255, 1)"><tspan x="0" y="0">Calc</tspan></text></g></g></svg>