<svg style="height: 512px; width: 512px;" xmlns="http://www.w3.org/2000/svg" viewBox="0 0 512 512"><defs><filter id="shadow-1" height="300%" width="300%" x="-100%" y="-100%"><feFlood flood-color="rgba(0, 255, 0, 1)" result="flood"></feFlood><feComposite in="flood" in2="SourceGraphic" operator="atop" result="composite"></feComposite><feGaussianBlur in="composite" stdDeviation="15" result="blur"></feGaussianBlur><feOffset result="offset"></feOffset><feComposite in="SourceGraphic" in2="offset" operator="over"></feComposite></filter></defs><g class="" style="" transform="translate(0,0)"><path d="M64 64v128l48-48 48 48 32-32-48-48 48-48H64zm256 0l48 48-48 48 32 32 48-48 48 48V64H320zM64 320v128h128l-48-48 48-48-32-32-48 48-48-48zm288 0l-32 32 48 48-48 48h128V320l-48 48-48-48z" fill="#0f0" fill-opacity="1" filter="url(#shadow-1)"></path></g></svg>