<?xml version="1.0" encoding="UTF-8" standalone="no"?>
<svg
   viewBox="0 0 36 36"
   width="36"
   height="36"
   version="1.1"
   id="svg2"
   sodipodi:docname="icons8-line.svg"
   inkscape:version="1.3.2 (091e20e, 2023-11-25, custom)"
   xmlns:inkscape="http://www.inkscape.org/namespaces/inkscape"
   xmlns:sodipodi="http://sodipodi.sourceforge.net/DTD/sodipodi-0.dtd"
   xmlns="http://www.w3.org/2000/svg"
   xmlns:svg="http://www.w3.org/2000/svg">
  <defs
     id="defs2" />
  <sodipodi:namedview
     id="namedview2"
     pagecolor="#ffffff"
     bordercolor="#111111"
     borderopacity="1"
     inkscape:showpageshadow="0"
     inkscape:pageopacity="0"
     inkscape:pagecheckerboard="1"
     inkscape:deskcolor="#d1d1d1"
     inkscape:export-bgcolor="#6a6a6a00"
     inkscape:zoom="23.5625"
     inkscape:cx="17.994695"
     inkscape:cy="18.015915"
     inkscape:window-width="2560"
     inkscape:window-height="1369"
     inkscape:window-x="1912"
     inkscape:window-y="-8"
     inkscape:window-maximized="1"
     inkscape:current-layer="svg2" />
  <path
     fill="#00c300"
     d="m 6.5,36 h 23 C 33.09,36 36,33.09 36,29.5 V 6.5 C 36,2.91 33.09,0 29.5,0 H 6.5 C 2.91,0 0,2.91 0,6.5 v 23 C 0,33.09 2.91,36 6.5,36 Z"
     id="path1" />
  <path
     fill="#ffffff"
     d="m 31.113,16.417 c 0,-5.865 -5.88,-10.637 -13.107,-10.637 -7.227,0 -13.108,4.772 -13.108,10.637 0,5.258 4.663,9.662 10.962,10.495 0.427,0.092 1.008,0.282 1.155,0.646 0.132,0.331 0.086,0.85 0.042,1.185 0,0 -0.153,0.925 -0.187,1.122 -0.057,0.331 -0.263,1.296 1.135,0.707 1.399,-0.589 7.548,-4.445 10.298,-7.611 h -0.001 c 1.901,-2.082 2.811,-4.197 2.811,-6.544 z m -18.238,3.49 h -2.604 c -0.379,0 -0.687,-0.308 -0.687,-0.688 V 14.01 c 0,-0.379 0.308,-0.687 0.687,-0.687 0.379,0 0.687,0.308 0.687,0.687 v 4.521 h 1.917 c 0.379,0 0.687,0.308 0.687,0.687 0,0.38 -0.308,0.689 -0.687,0.689 z m 2.693,-0.688 c 0,0.379 -0.308,0.688 -0.687,0.688 -0.379,0 -0.687,-0.308 -0.687,-0.688 V 14.01 c 0,-0.379 0.308,-0.687 0.687,-0.687 0.379,0 0.687,0.308 0.687,0.687 z m 6.27,0 c 0,0.297 -0.188,0.559 -0.47,0.652 -0.071,0.024 -0.145,0.036 -0.218,0.036 -0.215,0 -0.42,-0.103 -0.549,-0.275 l -2.669,-3.635 v 3.222 c 0,0.379 -0.308,0.688 -0.688,0.688 -0.379,0 -0.688,-0.308 -0.688,-0.688 V 14.01 c 0,-0.296 0.189,-0.558 0.47,-0.652 0.071,-0.024 0.144,-0.035 0.218,-0.035 0.214,0 0.42,0.103 0.549,0.275 l 2.67,3.635 V 14.01 c 0,-0.379 0.309,-0.687 0.688,-0.687 0.379,0 0.687,0.308 0.687,0.687 z m 4.214,-3.292 c 0.379,0 0.688,0.308 0.688,0.688 0,0.379 -0.308,0.687 -0.688,0.687 h -1.917 v 1.23 h 1.917 c 0.379,0 0.688,0.308 0.688,0.687 0,0.379 -0.309,0.688 -0.688,0.688 h -2.604 c -0.378,0 -0.687,-0.308 -0.687,-0.688 v -2.603 c 0,-0.001 0,-0.001 0,-0.001 0,0 0,-10e-4 0,-10e-4 v -2.601 c 0,-10e-4 0,-10e-4 0,-0.002 0,-0.379 0.308,-0.687 0.687,-0.687 h 2.604 c 0.379,0 0.688,0.308 0.688,0.687 0,0.379 -0.308,0.687 -0.688,0.687 h -1.917 v 1.23 h 1.917 z"
     id="path2" />
</svg>
