<svg xmlns="http://www.w3.org/2000/svg" viewBox="0 0 512 512" style="height: 128px; width: 128px;"><defs><filter id="shadow-1" height="300%" width="300%" x="-100%" y="-100%"><feFlood flood-color="rgba(0, 255, 0, 1)" result="flood"></feFlood><feComposite in="flood" in2="SourceGraphic" operator="atop" result="composite"></feComposite><feGaussianBlur in="composite" stdDeviation="15" result="blur"></feGaussianBlur><feOffset result="offset"></feOffset><feComposite in="SourceGraphic" in2="offset" operator="over"></feComposite></filter></defs><g class="" transform="translate(0,0)" style=""><path d="M87 32v71h18V32H87zm160 0v345h18V32h-18zm160 0v167h18V32h-18zM50 121c-5.14 0-9 3.9-9 9v28c0 5.1 3.86 9 9 9h92c5.1 0 9-3.9 9-9v-28c0-5.1-3.9-9-9-9H50zm37 64v295h18V185H87zm283 32c-5.1 0-9 3.9-9 9v28c0 5.1 3.9 9 9 9h92c5.1 0 9-3.9 9-9v-28c0-5.1-3.9-9-9-9h-92zm37 64v199h18V281h-18zM210 395c-5.1 0-9 3.9-9 9v28c0 5.1 3.9 9 9 9h92c5.1 0 9-3.9 9-9v-28c0-5.1-3.9-9-9-9h-92zm37 64v21h18v-21h-18z" fill="#0f0" fill-opacity="1" filter="url(#shadow-1)"></path></g></svg>