<svg xmlns="http://www.w3.org/2000/svg" viewBox="0 0 512 512" style="height: 128px; width: 128px;"><defs><filter id="shadow-1" height="300%" width="300%" x="-100%" y="-100%"><feFlood flood-color="rgba(0, 255, 0, 1)" result="flood"></feFlood><feComposite in="flood" in2="SourceGraphic" operator="atop" result="composite"></feComposite><feGaussianBlur in="composite" stdDeviation="15" result="blur"></feGaussianBlur><feOffset result="offset"></feOffset><feComposite in="SourceGraphic" in2="offset" operator="over"></feComposite></filter></defs><g class="" transform="translate(0,0)" style=""><path d="M384 64a64 64 0 0 0-64 64 64 64 0 0 0 1.1 11.3l-146.3 73.2A64 64 0 0 0 128 192a64 64 0 0 0-64 64 64 64 0 0 0 64 64 64 64 0 0 0 46.8-20.5L321 372.7a64 64 0 0 0-1 11.3 64 64 0 0 0 64 64 64 64 0 0 0 64-64 64 64 0 0 0-64-64 64 64 0 0 0-46.8 20.5L191 267.4a64 64 0 0 0 1-11.4 64 64 0 0 0-1.1-11.4l146.3-73.1A64 64 0 0 0 384 192a64 64 0 0 0 64-64 64 64 0 0 0-64-64z" fill="#0f0" fill-opacity="1" filter="url(#shadow-1)"></path></g></svg>