<?xml version="1.0" encoding="UTF-8" standalone="no"?>
<svg
   style="height: 512px; width: 512px;"
   viewBox="0 0 512 512"
   version="1.1"
   id="svg2"
   sodipodi:docname="trash-can.svg"
   inkscape:version="1.3.2 (091e20e, 2023-11-25, custom)"
   xmlns:inkscape="http://www.inkscape.org/namespaces/inkscape"
   xmlns:sodipodi="http://sodipodi.sourceforge.net/DTD/sodipodi-0.dtd"
   xmlns="http://www.w3.org/2000/svg"
   xmlns:svg="http://www.w3.org/2000/svg">
  <sodipodi:namedview
     id="namedview2"
     pagecolor="#ffffff"
     bordercolor="#111111"
     borderopacity="1"
     inkscape:showpageshadow="0"
     inkscape:pageopacity="0"
     inkscape:pagecheckerboard="1"
     inkscape:deskcolor="#d1d1d1"
     inkscape:zoom="2.2089844"
     inkscape:cx="255.77365"
     inkscape:cy="256"
     inkscape:window-width="2560"
     inkscape:window-height="1369"
     inkscape:window-x="1912"
     inkscape:window-y="-8"
     inkscape:window-maximized="1"
     inkscape:current-layer="svg2" />
  <defs
     id="defs2">
    <filter
       id="shadow-1"
       height="1.1875"
       width="1.2666667"
       x="-0.13333333"
       y="-0.09375">
      <feFlood
         flood-color="rgba(0, 255, 0, 1)"
         result="flood"
         id="feFlood1" />
      <feComposite
         in="flood"
         in2="SourceGraphic"
         operator="atop"
         result="composite"
         id="feComposite1" />
      <feGaussianBlur
         in="composite"
         stdDeviation="15"
         result="blur"
         id="feGaussianBlur1" />
      <feOffset
         result="offset"
         id="feOffset1" />
      <feComposite
         in="SourceGraphic"
         in2="offset"
         operator="over"
         id="feComposite2" />
    </filter>
  </defs>
  <g
     class=""
     transform="translate(0,-37.573828)"
     id="g2">
    <path
       d="m 199,103 v 50 h -78 v 30 h 270 v -30 h -78 v -50 z m 18,18 h 78 v 32 h -78 z m -79.002,80 30.106,286 h 175.794 l 30.104,-286 z m 62.338,13.38 0.64,8.98 16,224 0.643,8.976 -17.956,1.283 -0.64,-8.98 -16,-224 -0.643,-8.976 z m 111.328,0 17.955,1.284 -0.643,8.977 -16,224 -0.64,8.98 -17.956,-1.284 0.643,-8.977 16,-224 0.64,-8.98 z M 247,215 h 18 v 242 h -18 z"
       fill="#00ff00"
       fill-opacity="1"
       filter="url(#shadow-1)"
       id="path2" />
  </g>
</svg>
