<svg xmlns="http://www.w3.org/2000/svg" viewBox="0 0 512 512" style="height: 128px; width: 128px;"><defs><filter id="shadow-1" height="300%" width="300%" x="-100%" y="-100%"><feFlood flood-color="rgba(0, 255, 0, 1)" result="flood"></feFlood><feComposite in="flood" in2="SourceGraphic" operator="atop" result="composite"></feComposite><feGaussianBlur in="composite" stdDeviation="15" result="blur"></feGaussianBlur><feOffset result="offset"></feOffset><feComposite in="SourceGraphic" in2="offset" operator="over"></feComposite></filter></defs><g class="" transform="translate(0,0)" style=""><path d="M44.62 106a26 26 0 0 0-25.69 29.3c16 124 16 117.4 0 241.4A26 26 0 0 0 54.72 404l138.68-57.7c-1.2 9.5-2.4 18.9-3.9 30.4-2.5 19.8 17.3 35 35.8 27.3l252-124c9.7-4 16-13.5 16-24s-6.3-20-16-24l-252-124c-3.2-1.3-6.6-2-10.1-2-15.6.1-27.7 13.8-25.7 29.3 1.5 11.5 2.7 20.9 3.9 30.4L54.72 108a26 26 0 0 0-10.1-2z" fill="#0f0" fill-opacity="1" filter="url(#shadow-1)"></path></g></svg>