<svg xmlns="http://www.w3.org/2000/svg" viewBox="0 0 512 512" style="height: 128px; width: 128px;">
    <defs>
        <filter id="shadow-1" height="300%" width="300%" x="-100%" y="-100%">
            <feFlood flood-color="rgba(0, 255, 0, 1)" result="flood"></feFlood>
            <feComposite in="flood" in2="SourceGraphic" operator="atop" result="composite"></feComposite>
            <feGaussianBlur in="composite" stdDeviation="15" result="blur"></feGaussianBlur>
            <feOffset result="offset"></feOffset>
            <feComposite in="SourceGraphic" in2="offset" operator="over"></feComposite>
        </filter>
    </defs>
    <rect fill="#334033" fill-opacity="1" height="512" width="512" rx="36" ry="36"></rect>
    <g class="" transform="translate(0,0)" style="">
        <path
            d="M120.16 45A20.162 20.162 0 0 0 100 65.16v381.68A20.162 20.162 0 0 0 120.16 467h65.68A20.162 20.162 0 0 0 206 446.84V65.16A20.162 20.162 0 0 0 185.84 45h-65.68zm206 0A20.162 20.162 0 0 0 306 65.16v381.68A20.162 20.162 0 0 0 326.16 467h65.68A20.162 20.162 0 0 0 412 446.84V65.16A20.162 20.162 0 0 0 391.84 45h-65.68z"
            fill="#0f0" fill-opacity="1" filter="url(#shadow-1)"></path>
    </g>
</svg>